<?xml version="1.0" encoding="utf-8"?>
<!-- Generator: Adobe Illustrator 21.1.0, SVG Export Plug-In . SVG Version: 6.00 Build 0)  -->
<svg version="1.1" id="Слой_1" xmlns="http://www.w3.org/2000/svg" xmlns:xlink="http://www.w3.org/1999/xlink" x="0px" y="0px"
	 viewBox="0 0 55 55" style="enable-background:new 0 0 55 55;" xml:space="preserve">
<style type="text/css">
	.st0{fill:#FFFFFF;}
	.st1{display:none;fill:#FFFFFF;}
	.st2{opacity:0.62;fill:#1B1464;}
</style>
<g>
	<path class="st0" d="M-50.4-34.4c51.9,0,103.9,0,155.8,0 M27.7,54.3c14.5,0,26.2-11.8,26.2-26.3c0-14.6-11.7-26.3-26.3-26.3
		C13,1.7,1.2,13.4,1.2,28C1.3,42.6,13,54.3,27.7,54.3z M27.4,63.1 M25.5,66.5 M-9.3,63.6c-2.1-0.2-4.2,0-6.3,0 M66.9,66.4"/>
	<path class="st1" d="M-50.4,121.4c51.9,0,103.8,0,155.8,0c0-52,0-103.9,0-155.8c0.1,0,0.2,0.1,0.2,0.1c0,0.3,0,0.5,0,0.8
		c0,51.8,0,103.5,0,155.3c-51.7,0-103.4,0-155.1,0C-49.7,121.7-50.4,122.2-50.4,121.4z"/>
	<path class="st1" d="M27.7,54.3C13,54.3,1.3,42.6,1.2,28C1.2,13.4,13,1.7,27.5,1.7c14.6,0,26.3,11.7,26.3,26.3
		C53.9,42.5,42.2,54.3,27.7,54.3z M27.5,48.7c11.5,0,20.8-9.3,20.9-20.8c0-11.6-9.3-21-20.9-21C16,7,6.7,16.3,6.7,27.8
		C6.6,39.5,15.8,48.7,27.5,48.7z"/>
	<path class="st2" d="M27.5,48.7c-11.7,0-20.9-9.3-20.9-20.9C6.7,16.3,16,7,27.5,7c11.6,0,20.9,9.4,20.9,21
		C48.4,39.5,39,48.8,27.5,48.7z M18.6,31.7c0,2.4,0,4.9,0,7.3c0,1.4,0.9,2.3,2.3,2.4c0.3,0,0.6,0,1,0c1.8,0,2.7-0.8,2.7-2.7
		c0-2.5,0-5.1,0-7.6c0-2.2-0.1-4.5,0.1-6.7c0.1-1.8,1.2-3.1,2.9-3.7c1.7-0.6,3.3-0.3,4.6,1c1.3,1.2,1.7,2.8,1.1,4.5
		c-0.4,1.4-1.4,2.4-2.8,2.9c-1.4,0.5-1.5,0.7-1.5,2.1c0,0.6,0,1.3,0,1.9c0,1.9,0.6,2.4,2.5,1.8c5.3-1.6,8.4-6.7,7.3-12.1
		c-0.9-4.8-5.2-8.6-10.5-8.3c-5.6,0.3-9.7,5-9.7,10.6C18.5,27.3,18.6,29.5,18.6,31.7z"/>
	<path class="st0" d="M18.6,31.7c0-2.2,0-4.3,0-6.5c0-5.6,4.1-10.3,9.7-10.6c5.4-0.3,9.6,3.5,10.5,8.3c1.1,5.4-2,10.5-7.3,12.1
		c-1.9,0.6-2.5,0.1-2.5-1.8c0-0.6,0-1.3,0-1.9c0-1.5,0.1-1.6,1.5-2.1c1.4-0.5,2.4-1.5,2.8-2.9c0.5-1.7,0.1-3.2-1.1-4.5
		c-1.3-1.3-2.9-1.6-4.6-1c-1.7,0.6-2.8,1.8-2.9,3.7c-0.1,2.2-0.1,4.5-0.1,6.7c0,2.5,0,5.1,0,7.6c0,1.9-0.8,2.7-2.7,2.7
		c-0.3,0-0.6,0-1,0c-1.4-0.1-2.3-0.9-2.3-2.4C18.5,36.5,18.6,34.1,18.6,31.7z"/>
</g>
</svg>
